<svg width="95" height="106" viewBox="0 0 95 106" fill="none" xmlns="http://www.w3.org/2000/svg">
<g filter="url(#filter0_f_19_227)">
<rect x="12" y="11" width="71" height="84" fill="#F0E6E5" fill-opacity="0.8"/>
</g>
<path d="M87 16C90.5 16 93 17.1834 93 22C93 27 91.5 28 87 28C86.5 28 85 28 85 30C85 32 86.5 32 87 32C89 32 93 32.6 93 35C93 37.4 89 38 87 38C86.6667 38 85 38.4 85 40C85 41.6 86.6667 42 87 42C89 42.3333 93 43.8 93 47C93 50.2 89 51.6667 87 52C86.6667 52 85 52.6 85 55C85 57.4 86.5 57.5 87 57.5C89 57.6667 93 58.8 93 62C93 65.2 90 66 87 67C85.5 68 85.5 70 85.5 71C85.5 72.7189 86.5 74 87.5 74C89.5 74 93 74.4 93 78C93 81.6 89 81.5 87 82C86.1667 82.1667 85 83.5 86 85C87.1767 86.765 90 85.9689 90 90C90 91.5 89.5 92.5 87.5 93.5C87.5 93.5 86.905 93.8369 86.5 94C85.5764 94.3718 84 94.5 83.5 95.5C83 96.5 83 97 83.5 99.5" stroke="#F60606" stroke-width="3"/>
<path d="M8.075 89.4771C4.53125 89.4771 2 88.2495 2 83.253C2 78.0662 3.51875 77.0289 8.075 77.0289C8.58125 77.0289 10.1 77.0289 10.1 74.9542C10.1 72.8795 8.58125 72.8795 8.075 72.8795C6.05 72.8795 2 72.257 2 69.7674C2 67.2778 6.05 66.6553 8.075 66.6553C8.4125 66.6553 10.1 66.2404 10.1 64.5806C10.1 62.9209 8.4125 62.5059 8.075 62.5059C6.05 62.1602 2 60.6387 2 57.3192C2 53.9997 6.05 52.4782 8.075 52.1324C8.4125 52.1324 10.1 51.51 10.1 49.0204C10.1 46.5307 8.58125 46.427 8.075 46.427C6.05 46.2541 2 45.0784 2 41.7589C2 38.4394 5.0375 37.6095 8.075 36.5722C9.59375 35.5348 9.59375 33.4601 9.59375 32.4227C9.59375 30.6397 8.58125 29.3107 7.56875 29.3107C5.54375 29.3107 2 28.8958 2 25.1613C2 21.4268 6.05 21.5306 8.075 21.0119C8.91875 20.839 10.1 19.4559 9.0875 17.8998C7.8961 16.0689 5.25705 16.8875 5.0375 12.7131C5 12 5 10 6.5 9.5C8 9 8 9 9 9C10 9 11 10.5 12 10C13 9.5 13 9 13 8" stroke="#F60606" stroke-width="3"/>
<path d="M13 8C13 4.5 14.1834 2 19 2C24 2 25 3.5 25 8C25 8.5 25 10 27 10C29 10 29 8.5 29 8C29 6 29.6 2 32 2C34.4 2 35 6 35 8C35 8.33333 35.4 10 37 10C38.6 10 39 8.33333 39 8C39.3333 6 40.8 2 44 2C47.2 2 48.6667 6 49 8C49 8.33333 49.6 10 52 10C54.4 10 54.5 8.5 54.5 8C54.6667 6 55.8 2 59 2C62.2 2 63 5 64 8C65 9.5 67 9.5 68 9.5C69.7189 9.5 71 8.5 71 7.5C71 5.5 71.4 2 75 2C78.6 2 78.5 6 79 8C79.1667 8.83333 80.5 10 82 9C83.765 7.8233 83 4.5 87 5C90.2 5.4 91.7772 8.75263 91.5 10C91.2228 11.2474 91.1175 11.3825 90.5 12C89.8825 12.6175 89.1792 12.8148 88.5 13C87.9349 13.1541 87 12.5 86 13C85 13.5 84.5 16 87 16" stroke="#F60606" stroke-width="3"/>
<path d="M83.5001 99.5C84.0001 102 81.8019 104 76.9251 104C71.8626 104 70.8501 102.444 70.8501 97.7759C70.8501 97.2572 70.8501 95.7012 68.8251 95.7012C66.8001 95.7012 66.8001 97.2572 66.8001 97.7759C66.8001 99.8506 66.1926 104 63.7626 104C61.3326 104 60.7251 99.8506 60.7251 97.7759C60.7251 97.4301 60.3201 95.7012 58.7001 95.7012C57.0801 95.7012 56.6751 97.4301 56.6751 97.7759C56.3376 99.8506 54.8526 104 51.6126 104C48.3726 104 46.8876 99.8506 46.5501 97.7759C46.5501 97.4301 45.9426 95.7012 43.5126 95.7012C41.0826 95.7012 40.9813 97.2572 40.9813 97.7759C40.8126 99.8506 39.6651 104 36.4251 104C33.1851 104 32.3751 100.888 31.3626 97.7759C30.3501 96.2199 28.3251 96.2199 27.3126 96.2199C25.5722 96.2199 24.2751 97.2572 24.2751 98.2946C24.2751 100.369 23.8701 104 20.2251 104C16.5801 104 16.6813 99.8506 16.1751 97.7759C16.0063 96.9114 14.6563 95.7012 13.1376 96.7385C11.3505 97.9592 12.1251 101.407 8.07507 100.888C4.83507 100.473 3.23816 96.9951 3.51882 95.7012C3.79948 94.4072 3.90613 94.267 4.53133 93.6265C5.15652 92.9859 5.86862 92.7813 6.55633 92.5891C7.12854 92.4292 8.07507 93.1078 9.08757 92.5891C10.1001 92.0705 10.6063 89.4771 8.07507 89.4771" stroke="#F60606" stroke-width="3"/>
<path d="M55.5857 62.4595C54.3877 61.6608 53.0898 63.7906 52.5907 64.9554C52.5907 62.9587 48.5973 59.9637 47.0998 63.957C45.9018 67.1517 49.9284 70.9454 52.0915 72.4429C53.589 71.4446 56.6839 68.8489 57.0832 66.4529C57.5824 63.4579 57.0832 63.4579 55.5857 62.4595Z" fill="#FBCAD6" stroke="#FF7676" stroke-width="1.5" stroke-linejoin="round"/>
<path d="M33.9851 57.0075C36.3811 57.4068 36.3146 59.5034 35.9818 60.5017C40.7738 61.6997 38.9768 64.3287 37.4793 65.4934H28.9934C29.1598 63.8295 29.5924 60.302 29.9917 59.5033C30.4909 58.505 30.9901 56.5083 33.9851 57.0075Z" fill="#FBCAD6" stroke="#FF7676" stroke-width="1.5" stroke-linejoin="round"/>
<path d="M40.5848 31.0457C40.3234 32.3525 44.7705 34.0067 47.1 34.0067C53.8887 34.4061 54.2213 32.9937 54.2213 32.0197C53.8885 31.1877 52.2901 29.5129 47.1 29.0976C42.0458 28.6931 40.7352 30.2935 40.5848 31.0457Z" stroke="#FF7676" stroke-width="1.5"/>
<path d="M40.6107 31.0118V34.506C40.4443 35.5043 41.5092 37.501 47.0999 37.501C54.0883 37.501 53.7342 35.9159 54.2212 32.0197" stroke="#FF7676" stroke-width="1.5"/>
<path d="M63.0734 31.5109C65.0701 32.3096 64.9037 34.5059 64.5709 35.5043C65.0701 35.1715 66.4678 34.8055 68.0651 36.0035C69.6624 37.2015 68.3979 38.8321 67.5659 39.4977C66.734 40.1632 60.5775 40.9952 60.5775 40.9952C60.4111 39.6641 60.0784 36.7023 60.0784 35.5043C60.0784 34.0068 60.5775 30.5126 63.0734 31.5109Z" fill="#FBCAD6" stroke="#FF7676" stroke-width="1.5" stroke-linejoin="round"/>
<path d="M64.5707 16.0366C63.3727 14.0399 61.0765 15.8702 60.0782 17.035C59.6788 14.6389 58.5807 14.0399 58.0815 14.0399C57.4159 13.8736 55.985 14.1398 55.5857 16.5358C55.1863 18.9318 57.0832 23.857 58.0815 26.02C58.8802 24.822 62.4077 21.8603 64.0716 20.5292C64.7371 19.8636 65.7687 18.0333 64.5707 16.0366Z" fill="#FBCAD6" stroke="#FF7676" stroke-width="1.5" stroke-linejoin="round"/>
<path d="M41.6089 61.4612C40.7618 61.7435 39.6123 63.2915 39.1131 64.4562C38.1148 61.9603 33.123 61.4612 33.123 65.4546C33.123 68.6493 38.4475 73.4413 41.1098 75.438C42.4409 73.6077 45.1031 69.0486 45.1031 65.4546C45.1031 60.962 43.1065 60.962 41.6089 61.4612Z" fill="#FBCAD6" stroke="#FF7676" stroke-width="1.5" stroke-linejoin="round"/>
<path d="M55.0865 68.4496C53.0898 68.4496 52.9234 70.779 53.0898 71.9438C48.0981 69.9471 48.5973 72.9421 49.0964 73.9405C49.8327 75.4131 54.5873 77.2683 57.5823 77.9338C57.0831 71.4446 57.5823 68.4496 55.0865 68.4496Z" fill="#FBCAD6" stroke="#FF7676" stroke-width="1.5" stroke-linejoin="round"/>
<path d="M45.4659 70.0222C47.4626 70.4216 47.629 73.1837 47.4626 74.5148C50.4576 73.0173 53.4527 75.5131 52.4543 79.0073C51.6556 81.8027 44.4676 82.1687 40.9734 82.0023V75.5131C40.9734 70.5214 42.9701 69.5231 45.4659 70.0222Z" fill="#FBCAD6" stroke="#FF7676" stroke-width="1.5" stroke-linejoin="round"/>
<path d="M37.6156 70.9454C35.2196 69.7474 33.955 72.1101 33.6222 73.4413C32.6239 72.6093 30.2279 71.2449 28.6305 72.4429C27.0332 73.6409 28.6305 75.9371 29.6289 76.9354L35.6189 81.9271L38.1148 77.9338C38.9467 76.1035 40.0116 72.1434 37.6156 70.9454Z" fill="#FBCAD6" stroke="#FF7676" stroke-width="1.5" stroke-linejoin="round"/>
<path d="M49.2724 54.1089C48.8731 53.3102 47.4421 53.7761 46.7766 54.1089C47.2757 52.1122 44.7799 49.6163 43.7815 52.1122C42.9829 54.1089 44.1143 56.9375 44.7799 58.1022C45.7782 57.7695 47.9746 57.0041 48.7732 56.6047C49.7716 56.1056 49.7716 55.1072 49.2724 54.1089Z" fill="#FBCAD6" stroke="#FF7676" stroke-width="1.5" stroke-linejoin="round"/>
<path d="M29.3831 48C38.1494 48.487 54.7081 49.4611 62.9874 53.7839C57.6302 56.2793 42.0456 58.7144 29.3831 48Z" fill="#C9D1E3" fill-opacity="0.42"/>
<path d="M63.1248 53.8442C47.5402 59.2989 34.2283 52.2208 29.5205 48C28.3841 53.8442 25.9165 67.0912 25.1373 73.325C24.3581 79.5589 27.0854 82.416 28.5464 83.0654C28.936 85.4031 39.4232 87.9356 44.6181 88.9096C48.6766 88.9096 57.0858 88.6174 58.2546 87.4486C59.4235 86.2797 60.0404 84.0394 60.2027 83.0654L63.1248 53.8442Z" fill="#C9D1E3" fill-opacity="0.3"/>
<path d="M41.609 36.0035C41.609 40.496 41.609 41.9935 38.1148 42.4927L34.6206 42.9919C32.9567 43.1583 29.4292 44.689 28.6305 49.4811C27.8319 54.2731 25.9683 67.784 25.1364 73.9404C24.6372 76.7691 25.2362 83.0253 31.6256 85.4214C39.6123 88.4164 41.1098 89.4147 54.5874 88.9155C55.5858 88.7492 57.882 88.017 59.08 86.4197C60.278 84.8223 60.9103 78.7657 61.0766 75.9371L63.0733 55.9703C63.2397 54.6392 63.3728 51.5776 62.5742 49.9803C61.7755 48.3829 58.9136 46.6524 57.5825 45.9869L54.0883 44.4894C53.2563 44.1566 52.3962 43.7956 51.5924 42.9919C51.0932 42.4927 51.5924 38.9985 51.5924 37.501" stroke="#FF7676" stroke-width="1.5"/>
<defs>
<filter id="filter0_f_19_227" x="8" y="7" width="79" height="92" filterUnits="userSpaceOnUse" color-interpolation-filters="sRGB">
<feFlood flood-opacity="0" result="BackgroundImageFix"/>
<feBlend mode="normal" in="SourceGraphic" in2="BackgroundImageFix" result="shape"/>
<feGaussianBlur stdDeviation="2" result="effect1_foregroundBlur_19_227"/>
</filter>
</defs>
</svg>
