<svg width="114" height="102" viewBox="0 0 114 102" fill="none" xmlns="http://www.w3.org/2000/svg">
<g filter="url(#filter0_d_35_58)">
<path d="M99.5858 48.4961C96.8987 51.9082 54.9801 93 54.9801 93C54.9801 93 13.1013 51.9728 10.4142 48.5606C7.72711 45.1485 4.61008 38.6947 5.04002 29.2577C5.46996 19.8207 13.1013 12.457 16.8632 9.95481C20.446 7.63131 29.2916 3.45596 36.1705 5.60073C44.7692 8.28169 45.3065 9.35407 54.9801 17.3969C64.6536 9.35407 65.191 8.2817 73.7897 5.60074C80.6687 3.45597 89.554 7.56678 93.1368 9.89028C96.8987 12.3925 104.53 19.7562 104.96 29.1932C105.39 38.6302 102.273 45.084 99.5858 48.4961Z" fill="#F60606"/>
<path d="M99.5858 48.4961C96.8987 51.9082 54.9801 93 54.9801 93C54.9801 93 13.1013 51.9728 10.4142 48.5606C7.72711 45.1485 4.61008 38.6947 5.04002 29.2577C5.46996 19.8207 13.1013 12.457 16.8632 9.95481C20.446 7.63131 29.2916 3.45596 36.1705 5.60073C44.7692 8.28169 45.3065 9.35407 54.9801 17.3969C64.6536 9.35407 65.191 8.2817 73.7897 5.60074C80.6687 3.45597 89.554 7.56678 93.1368 9.89028C96.8987 12.3925 104.53 19.7562 104.96 29.1932C105.39 38.6302 102.273 45.084 99.5858 48.4961Z" stroke="#F60606" stroke-linejoin="round"/>
</g>
<defs>
<filter id="filter0_d_35_58" x="0.5" y="0.5" width="113" height="101" filterUnits="userSpaceOnUse" color-interpolation-filters="sRGB">
<feFlood flood-opacity="0" result="BackgroundImageFix"/>
<feColorMatrix in="SourceAlpha" type="matrix" values="0 0 0 0 0 0 0 0 0 0 0 0 0 0 0 0 0 0 127 0" result="hardAlpha"/>
<feOffset dx="2" dy="2"/>
<feGaussianBlur stdDeviation="3"/>
<feComposite in2="hardAlpha" operator="out"/>
<feColorMatrix type="matrix" values="0 0 0 0 0.560291 0 0 0 0 0.0104165 0 0 0 0 0.0104165 0 0 0 0.43 0"/>
<feBlend mode="normal" in2="BackgroundImageFix" result="effect1_dropShadow_35_58"/>
<feBlend mode="normal" in="SourceGraphic" in2="effect1_dropShadow_35_58" result="shape"/>
</filter>
</defs>
</svg>
